<?xml version="1.0" encoding="iso-8859-1"?>
<!-- Generator: Adobe Illustrator 28.1.0, SVG Export Plug-In . SVG Version: 6.00 Build 0)  -->
<svg version="1.1" id="Layer_1" xmlns="http://www.w3.org/2000/svg" xmlns:xlink="http://www.w3.org/1999/xlink" x="0px" y="0px"
	 viewBox="0 0 837.208 837.208" style="enable-background:new 0 0 837.208 837.208;" xml:space="preserve">
<g>
	<circle style="fill:#0D3B66;" cx="418.604" cy="418.604" r="287.75"/>
	<g>
		<g>
			<g>
				<path style="fill:#FFFFFF;" d="M418.604,596.691c-47.568,0-92.29-18.524-125.926-52.161c-2.768-2.768-2.768-7.254,0-10.021
					s7.254-2.768,10.021,0c30.959,30.959,72.121,48.01,115.904,48.01s84.945-17.051,115.904-48.01c2.768-2.768,7.254-2.768,10.021,0
					s2.768,7.254,0,10.021C510.894,578.166,466.172,596.691,418.604,596.691z"/>
			</g>
			<g>
				<path style="fill:#FFFFFF;" d="M539.519,304.776c-1.813,0-3.627-0.692-5.011-2.076c-30.959-30.959-72.121-48.009-115.904-48.009
					s-84.945,17.05-115.904,48.009c-2.768,2.768-7.254,2.768-10.021,0c-2.768-2.767-2.768-7.254,0-10.022
					c33.636-33.636,78.357-52.16,125.926-52.16s92.29,18.524,125.926,52.16c2.768,2.768,2.768,7.255,0,10.022
					C543.146,304.083,541.332,304.776,539.519,304.776z"/>
			</g>
			<g>
				<g>
					<path style="fill:#FFFFFF;" d="M539.51,304.777c-3.506,0-6.552-2.601-7.019-6.17l-4.666-35.724
						c-0.507-3.881,2.229-7.438,6.109-7.945c3.882-0.505,7.438,2.229,7.945,6.109l4.666,35.724c0.507,3.881-2.229,7.438-6.109,7.945
						C540.125,304.756,539.816,304.777,539.51,304.777z"/>
				</g>
				<g>
					<path style="fill:#FFFFFF;" d="M503.508,306.026c-3.8,0-6.944-3.013-7.077-6.84c-0.136-3.912,2.925-7.192,6.836-7.329
						l36.006-1.25c3.953-0.125,7.192,2.925,7.328,6.836c0.136,3.912-2.925,7.192-6.836,7.328l-36.006,1.251
						C503.675,306.025,503.591,306.026,503.508,306.026z"/>
				</g>
			</g>
			<g>
				<g>
					<path style="fill:#FFFFFF;" d="M297.686,546.606c-3.84,0-6.994-3.068-7.082-6.927c-0.089-3.913,3.012-7.156,6.925-7.245
						l36.019-0.815c0.055-0.001,0.109-0.002,0.163-0.002c3.84,0,6.994,3.068,7.082,6.927c0.089,3.912-3.012,7.156-6.925,7.245
						l-36.019,0.815C297.794,546.605,297.74,546.606,297.686,546.606z"/>
				</g>
				<g>
					<path style="fill:#FFFFFF;" d="M301.913,582.384c-3.542,0-6.603-2.65-7.028-6.254l-4.233-35.778
						c-0.46-3.887,2.317-7.41,6.204-7.87c3.9-0.476,7.411,2.318,7.87,6.204l4.233,35.778c0.46,3.887-2.317,7.41-6.204,7.87
						C302.472,582.368,302.191,582.384,301.913,582.384z"/>
				</g>
			</g>
		</g>
		<g>
			<g>
				<path style="fill:#FFFFFF;" d="M596.104,508.715c-23.847,0-35.882-5.968-47.521-11.737
					c-10.646-5.278-20.699-10.263-41.226-10.263c-20.526,0-30.581,4.984-41.227,10.263c-11.639,5.77-23.674,11.737-47.521,11.737
					c-23.849,0-35.885-5.968-47.524-11.737c-10.646-5.278-20.701-10.263-41.229-10.263c-20.528,0-30.584,4.984-41.229,10.263
					c-11.64,5.771-23.676,11.737-47.523,11.737c-3.914,0-7.087-3.173-7.087-7.087s3.173-7.087,7.087-7.087
					c20.527,0,30.583-4.984,41.229-10.263c11.64-5.77,23.676-11.737,47.524-11.737c23.848,0,35.884,5.967,47.523,11.737
					c10.646,5.278,20.701,10.263,41.229,10.263c20.526,0,30.581-4.984,41.227-10.263c11.639-5.77,23.674-11.737,47.521-11.737
					c23.847,0,35.882,5.968,47.521,11.737c10.646,5.278,20.699,10.263,41.226,10.263c3.914,0,7.087,3.173,7.087,7.087
					S600.018,508.715,596.104,508.715z"/>
			</g>
			<g>
				<path style="fill:#FFFFFF;" d="M264.834,449.198c-3.914,0-7.087-3.173-7.087-7.087s3.173-7.087,7.087-7.087
					c17.562,0,26.176-4.271,35.296-8.792c9.707-4.812,20.709-10.267,41.591-10.267c3.914,0,7.087,3.173,7.087,7.087
					s-3.173,7.087-7.087,7.087c-17.562,0-26.176,4.271-35.296,8.792C296.718,443.742,285.716,449.198,264.834,449.198z"/>
			</g>
			<g>
				<path style="fill:#FFFFFF;" d="M572.373,449.198c-20.881,0-31.882-5.455-41.588-10.268c-9.119-4.521-17.733-8.791-35.293-8.791
					c-3.914,0-7.087-3.173-7.087-7.087s3.173-7.087,7.087-7.087c20.881,0,31.882,5.455,41.588,10.268
					c9.119,4.521,17.733,8.791,35.293,8.791c3.914,0,7.087,3.173,7.087,7.087S576.287,449.198,572.373,449.198z"/>
			</g>
			<g>
				<g>
					<g>
						<path style="fill:#FFFFFF;" d="M418.594,450.668c-4.137,0-8.251-0.46-12.236-1.368c-25.06-5.684-42.686-27.631-42.856-53.37
							c-0.003-0.403,0.001-0.815,0.005-1.227c0-0.096,0.002-0.191,0.004-0.287c0-0.04,0.001-0.08,0.002-0.12
							c0.117-6.143,1.147-12.822,3.062-19.852c2.091-7.692,5.306-16.013,9.554-24.727c5.783-11.854,13.392-24.332,22.615-37.09
							c1.238-1.719,2.439-3.345,3.577-4.854c5.927-7.873,10.135-12.702,10.312-12.903c1.335-1.528,3.261-2.41,5.289-2.423
							c0.016,0,0.031,0,0.047,0c2.012,0,3.93,0.855,5.274,2.354c0.179,0.199,4.45,4.972,10.483,12.768
							c1.155,1.491,2.377,3.101,3.646,4.812c3.926,5.281,7.656,10.648,11.078,15.944c4.643,7.199,8.701,14.24,12.067,20.934
							c6.927,13.745,11.174,26.44,12.619,37.728c0.044,0.347,0.062,0.691,0.057,1.033c0.249,1.822,0.411,3.669,0.48,5.505
							c0.003,0.067,0.005,0.135,0.005,0.202c0.004,0.064,0.007,0.157,0.008,0.257c0.009,0.402,0.018,0.806,0.021,1.208
							c0,0.003,0.001,0.005,0.001,0.008c0.201,30.384-24.354,55.266-54.737,55.468C418.844,450.667,418.719,450.668,418.594,450.668
							z M377.68,394.749c0,0.019,0,0.038-0.001,0.057c-0.003,0.341-0.007,0.683-0.005,1.022
							c0.127,19.128,13.214,35.43,31.825,39.651c3.05,0.694,6.207,1.058,9.375,1.014c22.569-0.149,40.809-18.632,40.658-41.2
							c-0.002-0.344-0.011-0.689-0.019-1.033c-0.001-0.031-0.001-0.062-0.001-0.093l-0.003-0.102
							c-0.064-1.685-0.231-3.378-0.496-5.036c-0.071-0.447-0.1-0.893-0.087-1.33c-1.376-9.433-5.098-20.214-11.07-32.066
							c-3.144-6.25-6.95-12.85-11.315-19.621c-3.251-5.029-6.803-10.141-10.553-15.184c-1.211-1.636-2.372-3.165-3.471-4.583
							c-1.646-2.127-3.158-4.021-4.478-5.643c-1.297,1.637-2.783,3.551-4.399,5.698c-1.082,1.436-2.223,2.979-3.404,4.621
							c-8.633,11.939-16.021,24.042-21.37,35.01c-3.858,7.913-6.758,15.395-8.616,22.233c-1.603,5.884-2.466,11.38-2.566,16.341
							C377.683,394.587,377.682,394.668,377.68,394.749z"/>
					</g>
				</g>
			</g>
		</g>
	</g>
</g>
</svg>
