<?xml version="1.0" encoding="iso-8859-1"?>
<!-- Generator: Adobe Illustrator 28.1.0, SVG Export Plug-In . SVG Version: 6.00 Build 0)  -->
<svg version="1.1" id="Layer_1" xmlns="http://www.w3.org/2000/svg" xmlns:xlink="http://www.w3.org/1999/xlink" x="0px" y="0px"
	 viewBox="0 0 837.208 837.208" style="enable-background:new 0 0 837.208 837.208;" xml:space="preserve">
<g>
	<g>
		<linearGradient id="SVGID_1_" gradientUnits="userSpaceOnUse" x1="60.3736" y1="418.6038" x2="776.834" y2="418.6038">
			<stop  offset="0" style="stop-color:#CC441F"/>
			<stop  offset="1" style="stop-color:#F15025"/>
		</linearGradient>
		<path style="fill:url(#SVGID_1_);" d="M776.834,83.054l-177.432,26.022l-181.18-26.572
			c-19.999,169.861-159.109,303.27-331.528,314.417l-26.32,179.462l26.153,178.32C456.302,742.891,755.156,450.25,776.834,83.054z"
			/>
	</g>
	<g>
		<g>
			<g>
				<g>
					<g>
						<path style="fill:#FFFFFF;" d="M432.97,534.255c-26.589,0-48.222-21.633-48.222-48.222c0-14.33,6.194-27.622,17.073-36.819
							V334.101c0-17.175,13.974-31.148,31.148-31.148c17.17,0,31.139,13.974,31.139,31.148v115.109
							c10.887,9.185,17.084,22.478,17.084,36.822C481.193,512.622,459.56,534.255,432.97,534.255z M432.97,312.158
							c-12.1,0-21.943,9.844-21.943,21.943v117.312c0,1.43-0.665,2.777-1.798,3.648c-9.708,7.463-15.275,18.752-15.275,30.972
							c0,21.514,17.503,39.017,39.017,39.017c21.515,0,39.018-17.503,39.018-39.017c0-12.232-5.569-23.52-15.282-30.969
							c-1.136-0.87-1.802-2.22-1.802-3.651V334.101C454.904,322.002,445.065,312.158,432.97,312.158z"/>
					</g>
					<g>
						<path style="fill:#FFFFFF;" d="M432.969,489.713c-2.033,0-3.682-1.648-3.682-3.682V433.55c0-2.033,1.648-3.682,3.682-3.682
							s3.682,1.648,3.682,3.682v52.481C436.651,488.064,435.003,489.713,432.969,489.713z"/>
					</g>
				</g>
			</g>
		</g>
		<g>
			<g>
				<g>
					<g>
						<g>
							<path style="fill:#FFFFFF;" d="M498.27,455.667L498.27,455.667c-1.081,0-2.107-0.476-2.807-1.299l-9.796-11.542
								c-1.316-1.551-1.126-3.874,0.424-5.189c1.551-1.316,3.875-1.125,5.189,0.424l6.989,8.235l6.99-8.235
								c1.313-1.55,3.639-1.741,5.189-0.424c1.55,1.315,1.74,3.639,0.424,5.189l-9.797,11.542
								C500.378,455.192,499.351,455.667,498.27,455.667z"/>
						</g>
					</g>
					<g>
						<path style="fill:#FFFFFF;" d="M498.27,455.667c-2.033,0-3.682-1.648-3.682-3.682v-66.763c0-2.033,1.648-3.682,3.682-3.682
							s3.682,1.648,3.682,3.682v66.763C501.952,454.018,500.303,455.667,498.27,455.667z"/>
					</g>
				</g>
			</g>
			<g>
				<g>
					<g>
						<g>
							<path style="fill:#FFFFFF;" d="M367.672,455.667c-1.081,0-2.107-0.475-2.807-1.299l-9.797-11.542
								c-1.316-1.551-1.126-3.874,0.424-5.189c1.552-1.316,3.873-1.125,5.189,0.424l6.99,8.235l6.989-8.235
								c1.313-1.55,3.638-1.741,5.189-0.424c1.55,1.315,1.74,3.639,0.424,5.189l-9.796,11.542
								C369.779,455.191,368.753,455.667,367.672,455.667z"/>
						</g>
					</g>
					<g>
						<path style="fill:#FFFFFF;" d="M367.672,455.667c-2.033,0-3.682-1.648-3.682-3.682v-66.763c0-2.033,1.648-3.682,3.682-3.682
							s3.682,1.648,3.682,3.682v66.763C371.353,454.018,369.705,455.667,367.672,455.667z"/>
					</g>
				</g>
			</g>
		</g>
		<g>
			<path style="fill:#FFFFFF;" d="M494.629,344.874c-8.662,0-15.71-7.047-15.71-15.709s7.048-15.71,15.71-15.71
				s15.71,7.048,15.71,15.71S503.291,344.874,494.629,344.874z M494.629,320.818c-4.603,0-8.347,3.744-8.347,8.347
				c0,4.602,3.744,8.346,8.347,8.346s8.347-3.744,8.347-8.346C502.975,324.562,499.231,320.818,494.629,320.818z"/>
		</g>
	</g>
	<circle style="fill:#FFFFFF;" cx="432.971" cy="486.031" r="17.312"/>
</g>
</svg>
