<?xml version="1.0" encoding="iso-8859-1"?>
<!-- Generator: Adobe Illustrator 28.1.0, SVG Export Plug-In . SVG Version: 6.00 Build 0)  -->
<svg version="1.1" id="Layer_1" xmlns="http://www.w3.org/2000/svg" xmlns:xlink="http://www.w3.org/1999/xlink" x="0px" y="0px"
	 viewBox="0 0 837.208 837.208" style="enable-background:new 0 0 837.208 837.208;" xml:space="preserve">
<g>
	<g>
		<linearGradient id="SVGID_1_" gradientUnits="userSpaceOnUse" x1="418.6038" y1="776.834" x2="418.6038" y2="60.3736">
			<stop  offset="0" style="stop-color:#FFCA3A"/>
			<stop  offset="1" style="stop-color:#EC9A29"/>
		</linearGradient>
		<path style="fill:url(#SVGID_1_);" d="M754.703,418.221C584.843,398.223,451.433,259.112,440.285,86.693l-179.462-26.32
			L82.504,86.526c11.813,369.767,304.454,668.629,671.649,690.308l-26.022-177.433L754.703,418.221z"/>
	</g>
	<g>
		<g>
			<path style="fill:#FFFFFF;" d="M266.267,429.523c-0.521,0-1.051-0.111-1.554-0.346l-29.916-13.949
				c-0.885-0.413-1.57-1.16-1.904-2.078c-0.334-0.917-0.289-1.93,0.123-2.814l34.441-73.858c0.413-0.886,1.16-1.57,2.078-1.904
				c0.915-0.334,1.93-0.29,2.814,0.123l29.915,13.95c1.843,0.859,2.641,3.05,1.781,4.893l-34.44,73.857
				C268.981,428.735,267.653,429.523,266.267,429.523z M241.246,410.109l23.242,10.838l31.329-67.185l-23.242-10.838
				L241.246,410.109z"/>
		</g>
		<g>
			<path style="fill:#FFFFFF;" d="M483.736,429.523c-1.386,0-2.714-0.787-3.339-2.127l-34.44-73.857
				c-0.859-1.843-0.062-4.033,1.781-4.893l29.915-13.95c0.886-0.412,1.898-0.456,2.814-0.123c0.918,0.334,1.665,1.02,2.078,1.904
				l34.44,73.858c0.412,0.885,0.457,1.897,0.123,2.814c-0.334,0.918-1.02,1.665-1.904,2.078l-29.915,13.949
				C484.787,429.411,484.257,429.523,483.736,429.523z M454.186,353.763l31.329,67.185l23.241-10.838l-31.329-67.185
				L454.186,353.763z"/>
		</g>
		<g>
			<path style="fill:#FFFFFF;" d="M410.8,411.907c-25.396,0-40.707-16.646-41.426-17.444c-0.07-0.077-0.125-0.13-0.164-0.164
				c-0.991,0.122-3.697,1.916-5.887,3.367c-2.191,1.452-4.918,3.259-8.21,5.114c-0.039,0.022-0.078,0.043-0.117,0.063l-7.411,3.83
				c-10.312,5.326-23.039,1.275-28.367-9.038c-1.107-2.142-1.313-4.586-0.582-6.884c0.731-2.297,2.314-4.171,4.456-5.278
				l17.964-9.282c3.435-2.156,6.991-5.481,10.755-8.999c7.925-7.409,16.91-15.799,27.638-15.017
				c6.255,0.46,15.934,1.704,25.294,2.908c11.241,1.445,22.864,2.939,27.554,2.939c4.977,0,14.32-3.683,17.501-5.102
				c1.856-0.83,4.033,0.004,4.862,1.86s-0.003,4.033-1.859,4.862c-1.315,0.588-13.066,5.742-20.504,5.742
				c-5.16,0-16.494-1.457-28.493-3c-9.263-1.19-18.84-2.422-24.894-2.867c-7.521-0.545-14.916,6.364-22.071,13.052
				c-4.078,3.813-7.932,7.414-12.019,9.95c-0.082,0.051-0.166,0.099-0.251,0.143l-18.096,9.351
				c-0.532,0.275-0.743,0.728-0.821,0.973s-0.168,0.735,0.107,1.268c3.466,6.706,11.742,9.343,18.445,5.878l7.352-3.799
				c3.034-1.714,5.512-3.355,7.699-4.806c5.601-3.711,10.892-7.216,15.592-1.991c0.701,0.779,17.495,19.03,45.103,14.199
				c2-0.348,3.911,0.99,4.261,2.993s-0.99,3.91-2.993,4.261C417.582,411.625,414.104,411.907,410.8,411.907z M369.14,394.244
				L369.14,394.244L369.14,394.244z"/>
		</g>
		<g>
			<path style="fill:#FFFFFF;" d="M392.772,502.489c-3.366,0-6.751-1.121-9.546-3.423c-1.57-1.292-1.795-3.612-0.502-5.182
				c1.292-1.571,3.612-1.795,5.182-0.503c3.268,2.69,8.115,2.222,10.804-1.046c1.304-1.583,1.913-3.578,1.715-5.619
				c-0.197-2.041-1.178-3.882-2.76-5.185l-8.295-6.831c-1.57-1.292-1.795-3.612-0.502-5.182c1.291-1.571,3.611-1.797,5.182-0.502
				l8.295,6.83c3.102,2.553,5.022,6.161,5.409,10.159c0.388,3.999-0.806,7.908-3.359,11.01
				C401.425,500.622,397.114,502.489,392.772,502.489z"/>
		</g>
		<g>
			<path style="fill:#FFFFFF;" d="M411.328,488.364c-3.476,0-6.813-1.192-9.531-3.431l-12.427-10.232
				c-1.57-1.292-1.795-3.612-0.502-5.182c1.291-1.571,3.611-1.797,5.182-0.502l12.427,10.232c3.268,2.689,8.115,2.221,10.804-1.047
				c1.304-1.583,1.913-3.578,1.715-5.619c-0.197-2.041-1.178-3.882-2.76-5.185l-12.427-10.233c-1.57-1.292-1.795-3.612-0.502-5.182
				c1.292-1.571,3.611-1.797,5.182-0.502l12.427,10.232c3.102,2.553,5.022,6.161,5.409,10.159c0.388,3.999-0.806,7.908-3.359,11.01
				c-2.553,3.101-6.161,5.021-10.159,5.408C412.311,488.34,411.818,488.364,411.328,488.364z"/>
		</g>
		<g>
			<path style="fill:#FFFFFF;" d="M432.09,476.017c-3.366,0-6.751-1.121-9.546-3.422l-18.736-15.429
				c-1.57-1.292-1.795-3.612-0.502-5.182c1.292-1.571,3.611-1.797,5.182-0.502l18.736,15.428c3.269,2.688,8.115,2.221,10.804-1.047
				c1.304-1.583,1.913-3.578,1.715-5.619c-0.197-2.041-1.178-3.882-2.76-5.185l-18.736-15.429c-1.57-1.292-1.795-3.612-0.502-5.182
				c1.292-1.572,3.612-1.797,5.182-0.502l18.736,15.428c3.102,2.553,5.022,6.161,5.409,10.159c0.388,3.999-0.806,7.908-3.359,11.01
				C440.744,474.15,436.432,476.017,432.09,476.017z"/>
		</g>
		<g>
			<path style="fill:#FFFFFF;" d="M444.066,456.453c-3.366,0-6.751-1.121-9.546-3.423l-16.273-13.399
				c-1.57-1.292-1.795-3.612-0.502-5.182c1.292-1.572,3.612-1.797,5.182-0.502l16.273,13.399c3.268,2.688,8.115,2.221,10.806-1.047
				c2.689-3.267,2.221-8.114-1.047-10.805l-16.273-13.399c-1.57-1.292-1.795-3.612-0.502-5.182c1.292-1.571,3.612-1.797,5.182-0.502
				l16.273,13.399c3.102,2.553,5.023,6.161,5.41,10.159c0.388,3.999-0.806,7.909-3.359,11.01
				C452.719,454.587,448.409,456.453,444.066,456.453z"/>
		</g>
		<g>
			<path style="fill:#FFFFFF;" d="M451.299,436.335c-0.837,0-1.668-0.285-2.341-0.84l-30.715-25.29
				c-1.57-1.292-1.795-3.612-0.502-5.182c1.291-1.571,3.611-1.795,5.182-0.502l28.835,23.742l26.499-13.79
				c1.805-0.94,4.026-0.237,4.965,1.566c0.939,1.804,0.237,4.026-1.566,4.965l-28.658,14.914
				C452.462,436.198,451.878,436.335,451.299,436.335z"/>
		</g>
		<g>
			<path style="fill:#FFFFFF;" d="M301.038,437.219c-0.598,0-1.204-0.146-1.766-0.453c-16.332-8.942-30.645-15.587-30.787-15.653
				c-1.846-0.854-2.648-3.043-1.794-4.888c0.854-1.846,3.045-2.647,4.888-1.794c0.146,0.067,14.683,6.816,31.23,15.876
				c1.783,0.977,2.438,3.214,1.461,4.998C303.601,436.526,302.339,437.219,301.038,437.219z"/>
		</g>
		<g>
			<path style="fill:#FFFFFF;" d="M385.564,499.906c-0.824,0-1.652-0.274-2.338-0.84l-10.994-9.053
				c-1.57-1.292-1.795-3.612-0.502-5.182c1.292-1.572,3.612-1.797,5.182-0.502l10.994,9.053c1.57,1.292,1.795,3.612,0.502,5.182
				C387.68,499.449,386.626,499.906,385.564,499.906z"/>
		</g>
		<g>
			<path style="fill:#FFFFFF;" d="M355.66,372.322c-0.149,0-0.301-0.009-0.453-0.027c-1.661-0.204-40.884-5.082-57.862-13.164
				c-1.836-0.874-2.616-3.07-1.742-4.906s3.07-2.616,4.906-1.742c15.9,7.569,55.199,12.455,55.595,12.504
				c2.019,0.248,3.453,2.084,3.206,4.103C359.081,370.955,357.493,372.322,355.66,372.322z"/>
		</g>
		<g>
			<path style="fill:#FFFFFF;" d="M324.245,473.974c-3.366,0-6.75-1.121-9.546-3.422c0,0,0-0.001-0.001-0.001
				c-6.4-5.271-7.32-14.768-2.049-21.169l10.967-13.318c2.553-3.102,6.16-5.023,10.159-5.41c3.995-0.389,7.908,0.805,11.01,3.359
				c6.401,5.271,7.321,14.767,2.051,21.168L335.868,468.5C332.899,472.107,328.587,473.974,324.245,473.974z M319.378,464.866
				c3.268,2.691,8.115,2.222,10.806-1.046l10.967-13.319c2.689-3.268,2.22-8.114-1.047-10.805c-1.583-1.303-3.576-1.911-5.619-1.714
				c-2.041,0.197-3.882,1.178-5.185,2.761l-10.968,13.318C315.643,457.329,316.112,462.176,319.378,464.866L319.378,464.866z"/>
		</g>
		<g>
			<path style="fill:#FFFFFF;" d="M306.696,459.544c-3.476,0-6.814-1.193-9.532-3.432h-0.001c-6.401-5.271-7.32-14.768-2.049-21.169
				l9.125-11.082c2.553-3.102,6.161-5.022,10.159-5.409c4.006-0.389,7.91,0.806,11.01,3.359c3.101,2.553,5.021,6.16,5.409,10.159
				c0.387,3.998-0.806,7.908-3.358,11.009l-9.126,11.082c-2.553,3.102-6.161,5.023-10.159,5.41
				C307.678,459.52,307.186,459.544,306.696,459.544z M301.843,450.429c3.268,2.689,8.114,2.221,10.806-1.047l9.125-11.082
				c1.303-1.583,1.911-3.578,1.714-5.619s-1.178-3.882-2.761-5.185s-3.576-1.911-5.619-1.715c-2.041,0.197-3.882,1.178-5.185,2.76
				l-9.126,11.083C298.107,442.892,298.577,447.738,301.843,450.429L301.843,450.429z"/>
		</g>
		<g>
			<path style="fill:#FFFFFF;" d="M341.78,488.412c-3.366,0-6.75-1.121-9.545-3.423h-0.002c-6.4-5.271-7.32-14.768-2.049-21.169
				l9.125-11.082c5.271-6.402,14.768-7.32,21.168-2.052c6.402,5.271,7.322,14.769,2.051,21.17l-9.125,11.082
				C350.433,486.545,346.123,488.412,341.78,488.412z M336.915,479.306c3.269,2.691,8.117,2.219,10.805-1.048l9.125-11.081
				c1.303-1.583,1.912-3.579,1.714-5.619c-0.197-2.041-1.178-3.883-2.761-5.187c-3.267-2.688-8.114-2.22-10.805,1.048l-9.125,11.081
				C333.178,471.768,333.647,476.615,336.915,479.306L336.915,479.306z"/>
		</g>
		<g>
			<path style="fill:#FFFFFF;" d="M359.316,502.85c-3.367,0.001-6.751-1.121-9.547-3.423c-3.101-2.553-5.022-6.161-5.409-10.159
				c-0.388-3.999,0.806-7.908,3.359-11.01l6.92-8.403c5.271-6.401,14.768-7.322,21.169-2.051c6.402,5.271,7.321,14.768,2.05,21.169
				l-6.919,8.404C367.969,500.984,363.658,502.85,359.316,502.85z M366.255,471.741c-2.216,0-4.416,0.952-5.933,2.793l-6.92,8.404
				c-1.303,1.583-1.912,3.578-1.714,5.619c0.197,2.041,1.178,3.882,2.761,5.185c0,0,0,0.001,0.001,0.001
				c3.267,2.689,8.115,2.22,10.804-1.047l6.919-8.404c2.691-3.268,2.222-8.114-1.046-10.805
				C369.702,472.314,367.973,471.741,366.255,471.741z"/>
		</g>
	</g>
</g>
</svg>
