<?xml version="1.0" encoding="iso-8859-1"?>
<!-- Generator: Adobe Illustrator 28.1.0, SVG Export Plug-In . SVG Version: 6.00 Build 0)  -->
<svg version="1.1" id="Layer_1" xmlns="http://www.w3.org/2000/svg" xmlns:xlink="http://www.w3.org/1999/xlink" x="0px" y="0px"
	 viewBox="0 0 512 512" style="enable-background:new 0 0 512 512;" xml:space="preserve">
<g>
	<defs>
		<path id="SVGID_1_" d="M340.477,204.819c23.58,0,42.76-19.18,42.76-42.76s-19.18-42.76-42.76-42.76
			c-23.58,0-42.77,19.18-42.77,42.76S316.897,204.819,340.477,204.819z M340.477,133.469c15.76,0,28.59,12.83,28.59,28.59
			c0,15.77-12.83,28.59-28.59,28.59c-15.77,0-28.59-12.82-28.59-28.59C311.887,146.299,324.707,133.469,340.477,133.469z
			 M85,408.769c14.269,0,21.242,6.629,29.316,14.306c8.977,8.534,19.151,18.208,39.082,18.208s30.105-9.674,39.082-18.208
			c8.074-7.677,15.048-14.306,29.315-14.306c14.27,0,21.243,6.63,29.317,14.306c8.977,8.535,19.151,18.208,39.082,18.208
			c19.932,0,30.106-9.673,39.084-18.208c8.075-7.676,15.049-14.306,29.318-14.306s21.243,6.63,29.318,14.306
			c8.978,8.535,19.152,18.208,39.084,18.208c3.914,0,7.087-3.173,7.087-7.087s-3.173-7.087-7.087-7.087
			c-14.27,0-21.243-6.63-29.318-14.306c-8.978-8.535-19.152-18.208-39.084-18.208c-4.646,0-8.757,0.531-12.451,1.445v-43.242
			c29.62-0.22,51.41-8.01,64.82-23.2c17.11-19.38,13.74-43.38,13.58-44.39c-0.29-1.98-1.61-3.65-3.46-4.41
			c-18.95-7.73-37.18-6.31-52.7,4.12c-13.44,9.04-22.59,22.99-27.91,36.31c-5.32-13.32-14.47-27.27-27.92-36.31
			c-15.52-10.43-33.74-11.85-52.7-4.12c-1.85,0.76-3.16,2.43-3.46,4.41c-0.15,1.01-3.53,25.01,13.58,44.39
			c13.41,15.19,35.2,22.98,64.83,23.2v47.782c-6.089,3.475-10.839,7.988-15.293,12.222c-8.075,7.676-15.049,14.306-29.318,14.306
			c-14.269,0-21.242-6.629-29.316-14.306c-8.977-8.534-19.151-18.208-39.083-18.208c-19.93,0-30.104,9.673-39.081,18.208
			c-8.074,7.676-15.048,14.306-29.316,14.306s-21.242-6.629-29.316-14.306c-7.433-7.067-15.694-14.91-29.63-17.399l92.602-171.976
			l66.756,27.956c0.009,0.004,0.018,0.006,0.027,0.01c0.028,0.011,0.056,0.02,0.084,0.03c1.392,0.551,2.877,0.513,4.174-0.003
			c0.015-0.006,0.03-0.01,0.044-0.016c0.336-0.137,0.658-0.306,0.963-0.505c0.006-0.004,0.012-0.008,0.018-0.012
			c0.312-0.206,0.604-0.444,0.873-0.71c0.002-0.002,0.004-0.003,0.006-0.005l22.771-22.668c0.4-0.237,0.786-0.509,1.13-0.854
			l13.365-13.365c2.214-2.214,2.214-5.804,0-8.018c-2.215-2.215-5.803-2.215-8.018,0l-0.343,0.343
			c-0.353,0.221-0.691,0.474-0.998,0.78l-33.219,33.068l-67.999-28.477c-2.688-1.128-5.797-0.029-7.181,2.542L92.087,375.883
			V162.061c0-3.914-3.173-7.087-7.087-7.087s-7.087,3.173-7.087,7.087v238.94c0,0.115,0.012,0.227,0.017,0.34
			c-0.005,0.114-0.017,0.226-0.017,0.34C77.913,405.596,81.086,408.769,85,408.769z M278.587,322.208
			c-10.38-11.67-11.33-25.9-11.19-32.14c14.25-4.92,27.3-3.49,38.84,4.27c16.37,11,26.02,32.51,28.13,47.11
			C308.457,341.188,289.707,334.729,278.587,322.208z M374.707,294.338c7.07-4.75,14.7-7.13,22.83-7.13
			c5.14,0,10.49,0.95,16.01,2.86c0.15,6.25-0.81,20.48-11.18,32.14c-11.13,12.52-29.88,18.98-55.79,19.24
			C348.687,326.849,358.337,305.338,374.707,294.338z M334.805,95.288V76.386c0-3.131,2.538-5.669,5.669-5.669
			s5.669,2.538,5.669,5.669v18.901c0,3.131-2.538,5.669-5.669,5.669S334.805,98.418,334.805,95.288z M340.474,223.165
			c3.131,0,5.669,2.538,5.669,5.669v18.902c0,3.131-2.538,5.669-5.669,5.669s-5.669-2.538-5.669-5.669v-18.902
			C334.805,225.703,337.343,223.165,340.474,223.165z M249.13,162.061c0-3.131,2.538-5.669,5.669-5.669H273.7
			c3.131,0,5.669,2.538,5.669,5.669s-2.538,5.669-5.669,5.669h-18.901C251.668,167.73,249.13,165.192,249.13,162.061z
			 M407.247,156.392h18.901c3.131,0,5.669,2.538,5.669,5.669s-2.538,5.669-5.669,5.669h-18.901c-3.131,0-5.669-2.538-5.669-5.669
			S404.116,156.392,407.247,156.392z M275.884,105.489c-2.214-2.214-2.214-5.804,0-8.018c2.215-2.215,5.803-2.215,8.018,0
			l13.365,13.365c2.214,2.214,2.214,5.804,0,8.018c-1.107,1.107-2.558,1.66-4.009,1.66s-2.901-0.553-4.009-1.66L275.884,105.489z
			 M391.698,205.268l13.365,13.365c2.214,2.214,2.214,5.804,0,8.018c-1.107,1.107-2.558,1.66-4.009,1.66s-2.901-0.553-4.009-1.66
			l-13.365-13.365c-2.214-2.214-2.214-5.804,0-8.018C385.896,203.053,389.483,203.053,391.698,205.268z M383.681,118.854
			c-2.214-2.214-2.214-5.804,0-8.018l13.365-13.365c2.215-2.215,5.803-2.215,8.018,0c2.214,2.214,2.214,5.804,0,8.018
			l-13.365,13.365c-1.107,1.107-2.558,1.66-4.009,1.66S384.788,119.961,383.681,118.854z"/>
	</defs>
	<clipPath id="SVGID_00000069388901808809147660000011229817980189114763_">
		<use xlink:href="#SVGID_1_"  style="overflow:visible;"/>
	</clipPath>
	
		<linearGradient id="SVGID_00000145761308032503831240000013369326972478348201_" gradientUnits="userSpaceOnUse" x1="2.897653e-04" y1="509.6598" x2="512.0003" y2="-2.3403">
		<stop  offset="0" style="stop-color:#79C048"/>
		<stop  offset="1" style="stop-color:#3778CB"/>
	</linearGradient>
	
		<rect x="0" y="-2.34" style="clip-path:url(#SVGID_00000069388901808809147660000011229817980189114763_);fill:url(#SVGID_00000145761308032503831240000013369326972478348201_);" width="512" height="512"/>
</g>
</svg>
