<?xml version="1.0" encoding="iso-8859-1"?>
<!-- Generator: Adobe Illustrator 28.1.0, SVG Export Plug-In . SVG Version: 6.00 Build 0)  -->
<svg version="1.1" id="Layer_1" xmlns="http://www.w3.org/2000/svg" xmlns:xlink="http://www.w3.org/1999/xlink" x="0px" y="0px"
	 viewBox="0 0 512 512" style="enable-background:new 0 0 512 512;" xml:space="preserve">
<g>
	<defs>
		<path id="SVGID_1_" d="M184.011,384.797c0-3.131,2.538-5.669,5.669-5.669c10.61,0,15.729-4.089,21.655-8.823
			c6.632-5.297,14.148-11.301,28.73-11.301c14.585,0,22.103,6.004,28.735,11.301c5.928,4.734,11.046,8.823,21.658,8.823
			s15.731-4.089,21.658-8.823c6.633-5.297,14.15-11.301,28.734-11.301c3.131,0,5.669,2.538,5.669,5.669s-2.538,5.669-5.669,5.669
			c-10.612,0-15.731,4.089-21.658,8.823c-6.633,5.297-14.15,11.301-28.734,11.301s-22.102-6.004-28.734-11.301
			c-5.928-4.734-11.047-8.823-21.659-8.823c-10.609,0-15.728,4.089-21.654,8.822c-6.632,5.298-14.148,11.302-28.731,11.302
			C186.549,390.466,184.011,387.928,184.011,384.797z M164.7,274.97v-23.69h-59.704c-2.53,0-4.74-1.67-5.45-4.09l-9.939-34.219
			c-0.023-0.071-0.042-0.143-0.063-0.215l-9.988-34.346c-0.5-1.71-0.16-3.56,0.91-4.98c1.07-1.43,2.75-2.27,4.53-2.27h130.76
			c2.52,0,4.74,1.67,5.44,4.09l9.96,34.26c0.001,0.005,0.004,0.012,0.005,0.017c0.001,0.004,0.002,0.008,0.004,0.012
			c0.008,0.031,0.015,0.062,0.031,0.101l9.99,34.38c0.5,1.72,0.16,3.56-0.91,4.99c-1.07,1.43-2.75,2.27-4.53,2.27h-59.708v23.69
			h250.959c2.09,0,4.08,0.92,5.42,2.52c1.35,1.6,1.92,3.71,1.57,5.77c-7.15,41.44-28.82,79.35-61.04,106.75
			c-32.58,27.71-74.12,42.97-116.95,42.97c-42.84,0-84.37-15.26-116.95-42.97c-32.21-27.39-53.89-65.31-61.03-106.75
			c-0.36-2.06,0.22-4.17,1.56-5.77c1.35-1.6,3.33-2.52,5.42-2.52H164.7z M228.197,239.94l-6.7-23.05l-0.001-0.002h-53.571
			l6.701,23.052H228.197z M211.497,182.5h-53.567l6.7,23.05h53.567L211.497,182.5z M92.557,182.5l6.7,23.05h53.564l-6.701-23.05
			H92.557z M109.247,239.94h53.572l-6.701-23.052h-53.571l0.001,0.002L109.247,239.94z M404.496,327.572H107.508
			c9.93,19.579,23.739,37.188,40.719,51.638c30.02,25.54,68.29,39.6,107.77,39.6c39.47,0,77.74-14.06,107.77-39.6
			C380.757,364.761,394.556,347.151,404.496,327.572z M418.367,289.14H93.637c2.1,9.29,5,18.35,8.64,27.09
			c0,0.001,0.001,0.003,0.002,0.004h307.436c0-0.001,0.001-0.003,0.002-0.004C413.367,307.49,416.267,298.43,418.367,289.14z
			 M280.067,182.51v-1.27l0.01-0.25v-0.12c0.12-6.14,1.14-12.82,3.06-19.85c2.09-7.7,5.31-16.02,9.55-24.73
			c5.79-11.86,13.4-24.34,22.62-37.09c1.24-1.71,2.44-3.34,3.58-4.85c5.92-7.87,10.13-12.7,10.31-12.9
			c1.33-1.53,3.26-2.41,5.29-2.43h0.04c2.02,0,3.93,0.86,5.28,2.36c0.18,0.2,4.45,4.97,10.48,12.76c1.16,1.5,2.38,3.11,3.65,4.82
			c3.93,5.28,7.66,10.65,11.07,15.94c4.64,7.2,8.7,14.24,12.07,20.94c6.93,13.74,11.18,26.44,12.62,37.72
			c0.05,0.35,0.06,0.69,0.06,1.03c0.25,1.82,0.41,3.67,0.48,5.51v0.2c0.01,0.07,0.01,0.18,0.01,0.3c0.01,0.34,0.02,0.76,0.02,1.19
			c0.2,30.38-24.35,55.25-54.73,55.45c-0.12,0-0.25,0.01-0.37,0.01c-4.14,0-8.26-0.46-12.24-1.37
			C297.867,230.19,280.237,208.25,280.067,182.51z M294.237,182.42c0.13,19.11,13.22,35.41,31.83,39.64
			c3.05,0.69,6.2,1.05,9.37,1.01c10.93-0.07,21.18-4.4,28.86-12.18c7.68-7.78,11.87-18.09,11.8-29.02v-0.01
			c0-0.34-0.01-0.68-0.02-1.02c0-0.1,0-0.18-0.01-0.26c-0.06-1.67-0.23-3.34-0.49-4.97c-0.07-0.45-0.1-0.9-0.09-1.33
			c-1.37-9.44-5.09-20.22-11.07-32.07c-3.14-6.25-6.95-12.85-11.311-19.62c-3.25-5.03-6.8-10.14-10.55-15.18
			c-1.22-1.64-2.38-3.17-3.48-4.59c-1.64-2.13-3.15-4.021-4.47-5.64c-1.3,1.64-2.79,3.55-4.4,5.7c-1.08,1.43-2.22,2.98-3.41,4.62
			c-8.63,11.93-16.01,24.03-21.37,35.01c-3.85,7.91-6.75,15.39-8.61,22.23c-1.61,5.91-2.48,11.43-2.57,16.4v0.19
			C294.237,181.73,294.237,182.08,294.237,182.42z"/>
	</defs>
	<clipPath id="SVGID_00000003078044960616496690000013147922849964473742_">
		<use xlink:href="#SVGID_1_"  style="overflow:visible;"/>
	</clipPath>
	
		<linearGradient id="SVGID_00000049193493126929487750000006503125400237498505_" gradientUnits="userSpaceOnUse" x1="4.629083e-04" y1="510.3712" x2="512.0005" y2="-1.6288">
		<stop  offset="0" style="stop-color:#79C048"/>
		<stop  offset="1" style="stop-color:#3778CB"/>
	</linearGradient>
	
		<rect x="0" y="-1.629" style="clip-path:url(#SVGID_00000003078044960616496690000013147922849964473742_);fill:url(#SVGID_00000049193493126929487750000006503125400237498505_);" width="512" height="512"/>
</g>
</svg>
