<?xml version="1.0" encoding="iso-8859-1"?>
<!-- Generator: Adobe Illustrator 28.1.0, SVG Export Plug-In . SVG Version: 6.00 Build 0)  -->
<svg version="1.1" id="Layer_1" xmlns="http://www.w3.org/2000/svg" xmlns:xlink="http://www.w3.org/1999/xlink" x="0px" y="0px"
	 viewBox="0 0 837.208 837.208" style="enable-background:new 0 0 837.208 837.208;" xml:space="preserve">
<g>
	<g>
		<linearGradient id="SVGID_1_" gradientUnits="userSpaceOnUse" x1="60.3736" y1="418.6038" x2="776.834" y2="418.6038">
			<stop  offset="0" style="stop-color:#3778CB"/>
			<stop  offset="1" style="stop-color:#2D62A6"/>
		</linearGradient>
		<path style="fill:url(#SVGID_1_);" d="M418.985,754.704c19.998-169.868,159.109-303.271,331.528-314.417l26.32-179.462
			l-26.153-178.32C380.914,94.317,82.052,386.949,60.374,754.154l177.432-26.022L418.985,754.704z"/>
	</g>
	<g>
		<g>
			<path style="fill:#FFFFFF;" d="M480.845,509.702c-15.485,0-23.302-3.875-30.859-7.623c-6.913-3.427-13.442-6.665-26.772-6.665
				s-19.859,3.237-26.772,6.665c-7.559,3.748-15.374,7.623-30.861,7.623c-15.487,0-23.304-3.875-30.862-7.623
				c-6.913-3.427-13.443-6.665-26.774-6.665s-19.861,3.237-26.774,6.665c-7.559,3.748-15.375,7.623-30.861,7.623
				c-2.542,0-4.603-2.061-4.603-4.602s2.061-4.602,4.603-4.602c13.33,0,19.86-3.237,26.773-6.665
				c7.559-3.748,15.375-7.623,30.862-7.623s23.304,3.875,30.862,7.623c6.913,3.427,13.443,6.665,26.774,6.665
				c13.331,0,19.86-3.237,26.773-6.665c7.559-3.748,15.374-7.623,30.86-7.623s23.303,3.875,30.86,7.623
				c6.913,3.427,13.442,6.665,26.771,6.665c2.542,0,4.603,2.061,4.603,4.602S483.387,509.702,480.845,509.702z"/>
		</g>
		<g>
			<path style="fill:#FFFFFF;" d="M480.845,479.417c-15.485,0-23.302-3.875-30.859-7.622c-6.913-3.427-13.442-6.665-26.772-6.665
				s-19.859,3.237-26.772,6.665c-7.559,3.747-15.374,7.622-30.861,7.622c-15.487,0-23.304-3.875-30.862-7.622
				c-6.913-3.427-13.443-6.665-26.774-6.665s-19.861,3.237-26.774,6.665c-7.559,3.747-15.375,7.622-30.861,7.622
				c-2.542,0-4.603-2.061-4.603-4.602s2.061-4.602,4.603-4.602c13.33,0,19.86-3.237,26.773-6.665
				c7.559-3.747,15.375-7.622,30.862-7.622s23.304,3.875,30.862,7.622c6.913,3.427,13.443,6.665,26.774,6.665
				c13.331,0,19.86-3.237,26.773-6.665c7.559-3.747,15.374-7.622,30.86-7.622s23.303,3.875,30.86,7.622
				c6.913,3.427,13.442,6.665,26.771,6.665c2.542,0,4.603,2.061,4.603,4.602S483.387,479.417,480.845,479.417z"/>
		</g>
		<g>
			<path style="fill:#FFFFFF;" d="M480.845,449.132c-15.485,0-23.302-3.875-30.859-7.623c-6.913-3.427-13.442-6.665-26.772-6.665
				s-19.859,3.237-26.772,6.665c-7.559,3.748-15.374,7.623-30.861,7.623c-15.487,0-23.304-3.875-30.862-7.623
				c-6.913-3.427-13.443-6.665-26.774-6.665s-19.861,3.237-26.774,6.665c-7.559,3.748-15.375,7.623-30.861,7.623
				c-2.542,0-4.603-2.061-4.603-4.602s2.061-4.602,4.603-4.602c13.33,0,19.86-3.237,26.773-6.665
				c7.559-3.748,15.375-7.623,30.862-7.623s23.304,3.875,30.862,7.623c6.913,3.427,13.443,6.665,26.774,6.665
				c13.331,0,19.86-3.237,26.773-6.665c7.559-3.748,15.374-7.623,30.86-7.623s23.303,3.875,30.86,7.623
				c6.913,3.427,13.442,6.665,26.771,6.665c2.542,0,4.603,2.061,4.603,4.602S483.387,449.132,480.845,449.132z"/>
		</g>
	</g>
	<g>
		<g>
			<g>
				<g>
					<g>
						<path style="fill:#FFFFFF;" d="M293.32,404.709c-1.824,0-3.638-0.203-5.394-0.603c-11.038-2.503-18.803-12.172-18.878-23.51
							c-0.002-0.174,0-0.368,0.002-0.561l0,0c0.001-0.052,0.001-0.105,0.002-0.138c0.052-2.705,0.501-5.622,1.335-8.688
							c0.907-3.337,2.301-6.943,4.14-10.717c2.5-5.122,5.782-10.505,9.757-16.002c0.533-0.74,1.051-1.441,1.542-2.092
							c2.554-3.394,4.374-5.482,4.45-5.569c0.693-0.794,1.694-1.252,2.748-1.259c0.008,0,0.017,0,0.024,0
							c1.045,0,2.041,0.444,2.74,1.222c0.077,0.086,1.925,2.151,4.526,5.513c0.498,0.644,1.026,1.338,1.572,2.077
							c1.691,2.274,3.299,4.588,4.773,6.868c2.002,3.106,3.754,6.146,5.209,9.039c3.004,5.959,4.847,11.474,5.476,16.387
							c0.021,0.162,0.03,0.324,0.029,0.483c0.106,0.79,0.176,1.587,0.205,2.379l0.016,0.736c0,0.001,0,0.001,0,0.002l0,0
							c0.087,13.384-10.729,24.344-24.112,24.432C293.428,404.709,293.373,404.709,293.32,404.709z M276.412,379.996
							c0.001,0.042,0.001,0.084,0.001,0.126l-0.002,0.405c0.052,7.919,5.459,14.655,13.147,16.399
							c1.259,0.287,2.571,0.432,3.875,0.419c9.324-0.062,16.859-7.698,16.798-17.022c0-0.001,0-0.001,0-0.002l-0.012-0.561
							c-0.024-0.639-0.094-1.339-0.203-2.026c-0.034-0.212-0.049-0.423-0.046-0.631c-0.586-3.963-2.158-8.502-4.678-13.502
							c-1.34-2.663-2.961-5.473-4.819-8.356c-1.385-2.142-2.9-4.322-4.501-6.476c-0.519-0.701-1.014-1.352-1.481-1.957
							c-0.501-0.647-0.973-1.244-1.404-1.782c-0.426,0.545-0.89,1.147-1.381,1.8c-0.462,0.613-0.948,1.271-1.452,1.971
							c-3.68,5.088-6.828,10.246-9.109,14.921c-1.637,3.358-2.866,6.528-3.652,9.421c-0.676,2.483-1.038,4.796-1.078,6.877
							L276.412,379.996z"/>
					</g>
				</g>
			</g>
		</g>
		<g>
			<g>
				<g>
					<g>
						<path style="fill:#FFFFFF;" d="M365.573,404.709c-1.824,0-3.637-0.203-5.393-0.603c-11.039-2.503-18.804-12.171-18.879-23.51
							l0.002-0.539c0-0.021,0.001-0.076,0.002-0.113c0-0.021,0-0.043,0.001-0.064c0.051-2.685,0.5-5.602,1.335-8.67
							c0.909-3.342,2.302-6.948,4.141-10.717c2.496-5.117,5.778-10.501,9.756-16.001c0.533-0.74,1.051-1.441,1.542-2.092
							c2.554-3.394,4.374-5.482,4.45-5.569c0.693-0.794,1.694-1.252,2.748-1.259c0.009,0,0.017,0,0.024,0
							c1.046,0,2.042,0.444,2.74,1.223c0.077,0.086,1.924,2.15,4.525,5.511c0.499,0.644,1.025,1.337,1.571,2.075
							c1.695,2.279,3.303,4.593,4.775,6.872c2,3.102,3.752,6.142,5.209,9.038c3.003,5.96,4.846,11.474,5.475,16.386
							c0.021,0.163,0.031,0.324,0.03,0.484c0.106,0.789,0.176,1.587,0.205,2.379c0.002,0.046,0.003,0.092,0.003,0.139l0.013,0.578
							c0,0.007,0,0.013,0,0.02c0.089,13.385-10.729,24.346-24.113,24.435C365.682,404.709,365.627,404.709,365.573,404.709z
							 M348.668,380.014c0,0.045-0.001,0.087-0.001,0.116l-0.002,0.419c0.052,7.897,5.459,14.633,13.148,16.377
							c1.26,0.288,2.574,0.448,3.874,0.419c9.319-0.062,16.853-7.689,16.799-17.007l-0.01-0.523v0
							c-0.026-0.694-0.096-1.394-0.205-2.082c-0.034-0.212-0.049-0.423-0.046-0.631c-0.586-3.963-2.159-8.503-4.679-13.503
							c-1.34-2.665-2.961-5.476-4.818-8.355c-1.384-2.142-2.898-4.321-4.501-6.477c-0.519-0.699-1.014-1.351-1.481-1.957
							c-0.501-0.646-0.972-1.243-1.405-1.782c-0.426,0.544-0.889,1.147-1.38,1.799c-0.462,0.613-0.948,1.271-1.452,1.971
							c-3.682,5.092-6.83,10.25-9.109,14.92c-1.636,3.354-2.864,6.524-3.652,9.422C349.072,375.625,348.708,377.937,348.668,380.014
							z"/>
					</g>
				</g>
			</g>
		</g>
		<g>
			<g>
				<g>
					<g>
						<path style="fill:#FFFFFF;" d="M437.828,404.709c-1.824,0-3.637-0.203-5.393-0.603c-11.039-2.503-18.804-12.171-18.879-23.51
							l0.002-0.561c0-0.013,0.002-0.091,0.002-0.104c0.052-2.74,0.501-5.657,1.337-8.723c0.908-3.341,2.301-6.947,4.14-10.716
							c2.497-5.12,5.779-10.503,9.755-16.001c0.533-0.74,1.051-1.441,1.542-2.092c2.556-3.395,4.375-5.482,4.451-5.569
							c0.693-0.794,1.694-1.252,2.748-1.259c0.009,0,0.017,0,0.024,0c1.046,0,2.042,0.444,2.74,1.223
							c0.077,0.086,1.925,2.15,4.525,5.512c0.497,0.641,1.024,1.336,1.571,2.075c1.688,2.27,3.296,4.583,4.774,6.871
							c2.005,3.111,3.758,6.15,5.21,9.039c3.003,5.96,4.846,11.474,5.475,16.386c0.021,0.164,0.031,0.327,0.03,0.488
							c0.105,0.78,0.175,1.575,0.205,2.371c0.002,0.047,0.003,0.095,0.003,0.143l0.012,0.598c0,0.001,0,0.001,0,0.002l0,0
							c0.087,13.384-10.729,24.344-24.112,24.432C437.937,404.709,437.882,404.709,437.828,404.709z M437.596,345.029
							c-0.426,0.545-0.89,1.147-1.381,1.8c-0.462,0.613-0.948,1.271-1.452,1.971c-3.68,5.089-6.828,10.247-9.108,14.92
							c-1.636,3.354-2.864,6.524-3.652,9.422c-0.677,2.482-1.039,4.795-1.079,6.877c0,0.015-0.001,0.089-0.001,0.104l-0.002,0.427
							c0.052,7.897,5.459,14.633,13.148,16.377c1.26,0.288,2.554,0.448,3.874,0.419c9.324-0.062,16.859-7.698,16.798-17.022
							c0-0.001,0-0.001,0-0.002l-0.01-0.509c-0.027-0.701-0.096-1.399-0.204-2.073c-0.035-0.215-0.05-0.43-0.047-0.641
							c-0.587-3.962-2.159-8.5-4.678-13.498c-1.337-2.658-2.958-5.468-4.819-8.356c-1.389-2.149-2.904-4.329-4.5-6.476
							c-0.518-0.698-1.012-1.349-1.48-1.954C438.501,346.166,438.03,345.569,437.596,345.029z"/>
					</g>
				</g>
			</g>
		</g>
	</g>
</g>
</svg>
