<?xml version="1.0" encoding="iso-8859-1"?>
<!-- Generator: Adobe Illustrator 28.1.0, SVG Export Plug-In . SVG Version: 6.00 Build 0)  -->
<svg version="1.1" id="Layer_1" xmlns="http://www.w3.org/2000/svg" xmlns:xlink="http://www.w3.org/1999/xlink" x="0px" y="0px"
	 viewBox="0 0 837.208 837.208" style="enable-background:new 0 0 837.208 837.208;" xml:space="preserve">
<g>
	<g>
		<linearGradient id="SVGID_1_" gradientUnits="userSpaceOnUse" x1="418.6038" y1="776.8342" x2="418.6038" y2="60.3735">
			<stop  offset="0" style="stop-color:#609939"/>
			<stop  offset="1" style="stop-color:#79C048"/>
		</linearGradient>
		<path style="fill:url(#SVGID_1_);" d="M82.504,418.986c169.861,19.998,303.271,159.102,314.418,331.528l179.462,26.32
			l178.319-26.152C742.892,380.905,450.259,82.051,83.054,60.373l26.022,177.433L82.504,418.986z"/>
	</g>
	<g>
		<g>
			<g>
				<g>
					<path style="fill:#FFFFFF;" d="M534.529,451.991c-0.942,0-1.885-0.359-2.604-1.078c-27.678-27.677-71.388-32.07-103.936-10.447
						c-1.691,1.125-3.978,0.665-5.104-1.029c-1.125-1.693-0.665-3.979,1.029-5.104c35.454-23.555,83.071-18.774,113.217,11.373
						c1.438,1.438,1.438,3.769,0,5.207C536.414,451.632,535.471,451.991,534.529,451.991z"/>
				</g>
			</g>
		</g>
		<g>
			<g>
				<path style="fill:#FFFFFF;" d="M459.693,509.64c-19.803,0-39.201-7.693-54.788-13.875c-9.58-3.8-17.854-7.081-22.725-7.081
					h-53.869c-2.033,0-3.682-1.648-3.682-3.682V436.38c0-1.779,1.272-3.304,3.022-3.622c0.771-0.141,19.207-3.443,46.997-4.117
					c6.007-0.147,12.196,0.172,18.392,0.945l76.938,9.596c5.318,0.694,10.021,3.414,13.262,7.663
					c1.549,2.031,2.673,4.293,3.344,6.678c11.702,0.562,23.391-0.562,34.786-3.35l27.785-6.798
					c9.651-2.359,19.55,3.21,22.541,12.683c2.981,9.439-1.668,19.407-10.813,23.184C533.399,490.595,483.706,509.64,459.693,509.64z
					 M331.993,481.321h50.188c6.277,0,14.733,3.354,25.439,7.6c15.004,5.951,33.678,13.356,52.073,13.356
					c23.591,0,76.658-20.869,98.38-29.841c5.585-2.307,8.424-8.395,6.603-14.161c-1.828-5.788-7.885-9.189-13.77-7.748
					l-27.785,6.798c-11.765,2.879-23.823,4.085-35.908,3.596c-0.024,0.24-0.054,0.479-0.087,0.719
					c-1.479,10.64-11.361,18.274-22.026,17.015l-74.878-8.825c-2.02-0.238-3.464-2.068-3.226-4.087s2.084-3.461,4.087-3.225
					l74.878,8.825c6.738,0.796,12.94-4.016,13.872-10.716c0.463-3.333-0.406-6.642-2.447-9.317c-2.04-2.676-5.002-4.389-8.339-4.824
					l-76.918-9.594c-5.834-0.728-11.654-1.026-17.302-0.89c-20.834,0.505-36.532,2.561-42.834,3.513V481.321z"/>
			</g>
		</g>
		<g>
			<g>
				<g>
					<path style="fill:#FFFFFF;" d="M473.582,426.509c-2.542,0-4.603-2.061-4.603-4.602V385.62
						c-22.421-0.214-38.93-6.16-49.117-17.701c-13.078-14.815-10.497-33.159-10.381-33.933c0.241-1.604,1.31-2.964,2.812-3.577
						c14.479-5.908,28.405-4.817,40.274,3.157c17.665,11.87,25.613,34.863,25.617,47.406c0,0.007,0,0.014,0,0.021v40.912
						C478.185,424.448,476.124,426.509,473.582,426.509z M418.423,337.939c-0.085,4.786,0.723,15.328,8.421,23.981
						c8.337,9.372,22.371,14.238,41.757,14.492c-1.685-11.003-8.941-26.99-21.167-35.205
						C438.81,335.411,429.061,334.315,418.423,337.939z"/>
				</g>
			</g>
			<g>
				<g>
					<path style="fill:#FFFFFF;" d="M473.582,426.509c-2.542,0-4.603-2.061-4.603-4.602v-40.912c0-0.007,0-0.014,0-0.021
						c0.004-12.543,7.952-35.536,25.617-47.406c11.868-7.975,25.796-9.067,40.274-3.157c1.502,0.613,2.57,1.972,2.812,3.577
						c0.116,0.774,2.697,19.118-10.381,33.933c-10.188,11.541-26.698,17.486-49.117,17.701v36.286
						C478.185,424.448,476.124,426.509,473.582,426.509z M516.888,335.852c-6.109,0-11.846,1.786-17.157,5.355
						c-12.226,8.215-19.482,24.202-21.167,35.205c19.388-0.253,33.42-5.12,41.757-14.492c7.694-8.649,8.505-19.186,8.42-23.982
						C524.655,336.547,520.699,335.852,516.888,335.852z"/>
				</g>
			</g>
		</g>
	</g>
</g>
</svg>
