<?xml version="1.0" encoding="iso-8859-1"?>
<!-- Generator: Adobe Illustrator 28.1.0, SVG Export Plug-In . SVG Version: 6.00 Build 0)  -->
<svg version="1.1" id="Layer_1" xmlns="http://www.w3.org/2000/svg" xmlns:xlink="http://www.w3.org/1999/xlink" x="0px" y="0px"
	 viewBox="0 0 512 512" style="enable-background:new 0 0 512 512;" xml:space="preserve">
<g>
	<defs>
		<path id="SVGID_1_" d="M440.587,282.927c0,3.914-3.173,7.087-7.087,7.087c-23.847,0-35.882-5.968-47.521-11.737
			c-10.646-5.278-20.699-10.263-41.226-10.263s-30.581,4.984-41.227,10.263c-11.639,5.77-23.674,11.737-47.521,11.737
			c-23.849,0-35.885-5.968-47.524-11.737c-10.646-5.278-20.701-10.263-41.229-10.263s-30.583,4.984-41.229,10.263
			c-11.64,5.77-23.676,11.737-47.524,11.737c-3.914,0-7.087-3.173-7.087-7.087s3.173-7.087,7.087-7.087
			c20.528,0,30.584-4.984,41.229-10.263c11.64-5.771,23.676-11.737,47.523-11.737s35.884,5.967,47.523,11.737
			c10.646,5.278,20.701,10.263,41.229,10.263c20.526,0,30.581-4.984,41.227-10.263c11.639-5.77,23.674-11.737,47.521-11.737
			c23.847,0,35.882,5.968,47.521,11.737c10.646,5.278,20.699,10.263,41.226,10.263C437.414,275.84,440.587,279.013,440.587,282.927z
			 M179.118,197.265c-20.883,0-31.885,5.455-41.592,10.268c-9.12,4.521-17.734,8.791-35.296,8.791c-3.914,0-7.087,3.173-7.087,7.087
			s3.173,7.087,7.087,7.087c20.882,0,31.884-5.455,41.591-10.267c9.12-4.521,17.734-8.792,35.297-8.792
			c3.914,0,7.087-3.173,7.087-7.087S183.032,197.265,179.118,197.265z M374.477,207.532c-9.706-4.812-20.707-10.267-41.588-10.267
			c-3.914,0-7.087,3.173-7.087,7.087s3.173,7.087,7.087,7.087c17.56,0,26.173,4.271,35.293,8.791
			c9.706,4.812,20.708,10.268,41.589,10.268c3.914,0,7.087-3.173,7.087-7.087s-3.173-7.087-7.087-7.087
			C392.21,216.324,383.597,212.053,374.477,207.532z M311.077,189.35c0,0.06,0,0.18,0.01,0.3c0,0.33,0.01,0.75,0.02,1.18
			c0.19,30.38-24.36,55.25-54.74,55.46h-0.38c-4.13,0-8.25-0.46-12.23-1.37c-25.06-5.69-42.69-27.63-42.86-53.37
			c0-0.41,0-0.82,0.01-1.23v-0.41c0.12-6.14,1.15-12.82,3.06-19.85c2.1-7.7,5.31-16.01,9.56-24.72
			c5.78-11.86,13.39-24.34,22.61-37.09c1.24-1.72,2.44-3.35,3.58-4.86c5.93-7.87,10.13-12.7,10.31-12.9
			c1.34-1.53,3.26-2.41,5.29-2.43h0.05c2.01,0,3.93,0.86,5.27,2.36c0.18,0.2,4.45,4.97,10.48,12.77c1.16,1.49,2.38,3.1,3.65,4.81
			c3.93,5.29,7.66,10.65,11.08,15.94c4.64,7.2,8.7,14.24,12.07,20.94c6.92,13.75,11.17,26.44,12.61,37.72
			c0.05,0.35,0.07,0.7,0.06,1.04c0.25,1.82,0.41,3.67,0.48,5.5C311.067,189.21,311.077,189.28,311.077,189.35z M296.927,190.9
			c0-0.34-0.01-0.68-0.02-1.02v-0.26c-0.07-1.66-0.23-3.33-0.5-4.97c-0.07-0.45-0.1-0.9-0.08-1.33c-1.38-9.43-5.1-20.21-11.07-32.07
			c-3.15-6.25-6.96-12.85-11.32-19.62c-3.25-5.02-6.8-10.13-10.55-15.18c-1.21-1.64-2.37-3.17-3.47-4.59
			c-1.65-2.12-3.16-4.02-4.48-5.64c-1.3,1.64-2.78,3.55-4.4,5.7c-1.08,1.44-2.22,2.98-3.4,4.62c-8.63,11.94-16.02,24.04-21.37,35.01
			c-3.86,7.91-6.76,15.39-8.62,22.23c-1.6,5.89-2.47,11.38-2.57,16.34v0.31c0,0.34-0.01,0.68-0.01,1.02
			c0.13,19.12,13.22,35.43,31.83,39.65c3.05,0.69,6.22,1.04,9.37,1.01c22.57-0.15,40.81-18.63,40.66-41.2V190.9z M201.027,319.7
			h-10.27l-9.49,38.74h-0.47l-10.16-38.74h-9.34l-10.13,38.72h-0.49l-9.5-38.72h-10.26l14.87,52.69h9.42l10.57-36.97h0.41
			l10.55,36.97h9.42L201.027,319.7z M233.627,359.4h-19.81l-4.36,12.99h-10.18l18.55-52.69h11.78l18.57,52.69h-10.18L233.627,359.4z
			 M231.047,351.73l-7.13-21.22h-0.41l-7.12,21.22H231.047z M246.427,327.7h16.29v44.69h9.47V327.7h16.28v-8h-42.04V327.7z
			 M330.817,327.7v-8h-34.27v52.69h34.48v-8h-24.93v-14.38h22.94v-8h-22.94V327.7H330.817z M369.427,351.51l11.4,20.88h-10.65
			l-10.35-19.3h-9.72v19.3h-9.54V319.7h19.76c4.05,0,7.45,0.7,10.2,2.11s4.84,3.37,6.25,5.9c1.42,2.53,2.12,5.48,2.12,8.84
			c0,3.38-0.71,6.31-2.15,8.79c-1.43,2.479-3.53,4.39-6.31,5.729C370.106,351.23,369.777,351.38,369.427,351.51z M350.106,345.17
			h8.8c2.37,0,4.31-0.33,5.82-0.99c1.51-0.66,2.63-1.63,3.35-2.91c0.73-1.28,1.1-2.85,1.1-4.72c0-1.87-0.37-3.47-1.11-4.8
			c-0.74-1.33-1.86-2.34-3.37-3.03c-1.51-0.7-3.45-1.04-5.84-1.04h-8.75V345.17z M172.507,394c0.94,1.76,1.42,3.74,1.42,5.97
			c0,2.25-0.48,4.24-1.42,5.99c-0.95,1.74-2.35,3.12-4.2,4.11c-1.85,1-4.12,1.5-6.83,1.5h-6.7v11.84h-6.35v-35.04h13.14
			c2.69,0,4.95,0.5,6.79,1.5C170.187,390.88,171.567,392.25,172.507,394z M167.457,399.97c0-1.25-0.25-2.34-0.73-3.29
			c-0.49-0.94-1.23-1.68-2.24-2.21c-1.01-0.53-2.31-0.8-3.89-0.8h-5.82v12.68h5.85c1.57,0,2.86-0.27,3.87-0.82
			c1-0.55,1.74-1.3,2.23-2.26C167.207,402.31,167.457,401.21,167.457,399.97z M208.637,396.19c1.41,2.69,2.11,5.92,2.11,9.7
			c0,3.78-0.7,7.01-2.11,9.69c-1.41,2.69-3.33,4.75-5.75,6.17c-2.43,1.43-5.17,2.14-8.24,2.14c-3.07,0-5.82-0.71-8.24-2.15
			c-2.43-1.43-4.34-3.49-5.75-6.17c-1.41-2.69-2.11-5.92-2.11-9.68c0-3.78,0.7-7.01,2.11-9.7c1.41-2.68,3.32-4.74,5.75-6.16
			c2.42-1.43,5.17-2.14,8.24-2.14c3.07,0,5.81,0.71,8.24,2.14C205.307,391.45,207.227,393.51,208.637,396.19z M204.367,405.89
			c0-2.66-0.41-4.9-1.24-6.73c-0.83-1.84-1.97-3.22-3.43-4.16s-3.15-1.41-5.05-1.41c-1.91,0-3.59,0.47-5.05,1.41
			s-2.6,2.32-3.43,4.16c-0.83,1.83-1.24,4.07-1.24,6.73s0.41,4.9,1.24,6.73c0.83,1.83,1.97,3.22,3.43,4.16s3.14,1.41,5.05,1.41
			c1.9,0,3.59-0.47,5.05-1.41s2.6-2.33,3.43-4.16C203.957,410.79,204.367,408.55,204.367,405.89z M239.237,406.71
			c-0.98-0.8-2.08-1.46-3.31-1.98c-1.22-0.53-2.5-0.95-3.82-1.25l-3.29-0.83c-0.72-0.17-1.43-0.38-2.14-0.63
			c-0.7-0.25-1.35-0.56-1.93-0.93c-0.58-0.37-1.04-0.82-1.38-1.36c-0.33-0.54-0.5-1.17-0.5-1.9c0.01-0.88,0.27-1.66,0.77-2.35
			c0.5-0.68,1.22-1.22,2.17-1.62c0.95-0.4,2.08-0.6,3.41-0.6c1.88,0,3.41,0.42,4.59,1.25c1.18,0.83,1.85,2,2.01,3.49h6.11
			c-0.03-1.97-0.59-3.72-1.66-5.24c-1.07-1.53-2.55-2.72-4.42-3.58c-1.88-0.86-4.06-1.29-6.55-1.29c-2.45,0-4.65,0.43-6.59,1.29
			c-1.94,0.86-3.47,2.07-4.59,3.62c-1.13,1.55-1.69,3.36-1.69,5.42c0,2.51,0.84,4.52,2.51,6.04c1.67,1.51,3.95,2.63,6.84,3.38
			l3.98,1.02c1.26,0.32,2.36,0.68,3.3,1.09c0.94,0.4,1.67,0.9,2.2,1.5c0.52,0.6,0.79,1.36,0.8,2.27c-0.01,1.01-0.31,1.88-0.91,2.63
			c-0.59,0.75-1.41,1.33-2.45,1.74c-1.05,0.42-2.26,0.63-3.64,0.63c-1.32,0-2.52-0.2-3.58-0.6c-1.07-0.4-1.93-1-2.59-1.81
			c-0.67-0.81-1.04-1.83-1.13-3.05h-6.25c0.09,2.33,0.7,4.3,1.82,5.92c1.13,1.62,2.69,2.85,4.69,3.7c2,0.84,4.37,1.26,7.09,1.26
			c2.811,0,5.2-0.43,7.18-1.31c1.98-0.87,3.5-2.08,4.55-3.64c1.05-1.56,1.57-3.36,1.57-5.42c0-1.51-0.29-2.84-0.86-3.97
			C240.977,408.47,240.207,407.51,239.237,406.71z M248.057,423.41h6.35v-35.04h-6.35V423.41z M259.757,393.69h10.83v29.72h6.3
			v-29.72h10.83v-5.32h-27.96V393.69z M293.097,423.41h6.34v-35.04h-6.34V423.41z M320.507,415.95h-0.36l-9.12-27.58h-6.97
			l12.34,35.04h7.84l12.36-35.04h-6.99L320.507,415.95z M347.557,408.52h15.27v-5.32h-15.27v-9.51h16.45v-5.32h-22.79v35.04h22.93
			v-5.32h-16.59V408.52z"/>
	</defs>
	<clipPath id="SVGID_00000086657241878540540850000010475555768897039498_">
		<use xlink:href="#SVGID_1_"  style="overflow:visible;"/>
	</clipPath>
	
		<linearGradient id="SVGID_00000092436441655804763350000015264821613614851206_" gradientUnits="userSpaceOnUse" x1="2.897653e-04" y1="522.2875" x2="512.0003" y2="10.2875">
		<stop  offset="0" style="stop-color:#79C048"/>
		<stop  offset="1" style="stop-color:#3778CB"/>
	</linearGradient>
	
		<rect x="0" y="10.288" style="clip-path:url(#SVGID_00000086657241878540540850000010475555768897039498_);fill:url(#SVGID_00000092436441655804763350000015264821613614851206_);" width="512" height="512"/>
</g>
</svg>
